<svg xmlns="http://www.w3.org/2000/svg" width="140.693" height="273.202" viewBox="0 0 140.693 273.202">
  <g id="Group_2" data-name="Group 2" transform="translate(-1268.671 -729.073)">
    <g id="Group_1" data-name="Group 1">
      <path id="Path_2" data-name="Path 2" d="M1341.536,835.558c-6.038,21.461,4.24,41.675,4.522,72.373s-5.525,44.757-2.439,70.215,6.27,23.584,6.27,23.584-3.968-47.324,0-79.487-7.4-59.255-6.27-71.22.764-21.666,2.439-26.56S1341.536,835.558,1341.536,835.558Z" fill="none" stroke="#91949c" stroke-width="1"/>
      <path id="Path_3" data-name="Path 3" d="M1342.389,833.585s-1.96,5.706-21.5,0-14.985-2.15-24.516-18.22-19.492-17.553-19.492-17.553,6.053-3.221,11.477-2.419S1276.834,792.634,1274,780.8s-4.591-15.8-4.591-15.8,13.346-1.186,26.962-16.4,9.451-16.693,24.516-16.008,21.5,5.256,21.5,5.256" fill="none" stroke="#91949c" stroke-width="1"/>
      <path id="Path_4" data-name="Path 4" d="M1337.74,751.369l4.372-13.776s2.424-8.752,9.74-7.969,5.972,17.913,14.473,29.145,10.479-.664,25.3,14.1-35.52,34.012-35.52,34.012" fill="none" stroke="#91949c" stroke-width="1"/>
      <path id="Path_5" data-name="Path 5" d="M1359.4,741.815s1.6-4.805,12-5.841,9.2,15.333,26.287,18.66-1.042,28.455,0,35.357-15.135,3.368-15.135,3.368" fill="none" stroke="#91949c" stroke-width="1"/>
      <path id="Path_6" data-name="Path 6" d="M1346.151,823.527s9.409,18.475,12.508,18.2,7.451-15.278,13.967-20.6,16.443-5.537,25.966-12.076.6-25.821.6-25.821" fill="none" stroke="#91949c" stroke-width="1"/>
      <path id="Path_7" data-name="Path 7" d="M1330.341,776.233c.2-2.837-10.163-10.547-9.918-13.549.451-5.506,7.851-9.757,7.851-9.757s8.954-5.058,19.557,4.431-4.78,16.679-13.652,18.875-21.347-9.1-22.769-20.817,6.6,40.517,0,48.532,32.971-23.716,50.347-30,19.746-4.934,19.746-4.934-19.862,9.8-28.308,22.081-23.749,2.692-28.536,7.557,21.471,24.945,21.471,24.945" fill="none" stroke="#91949c" stroke-width="1"/>
      <path id="Path_8" data-name="Path 8" d="M1313.863,778.4s-2.366-3.407-9.9,8.9,1.224,20.84,16.508,25.973,20.722,7.11,20.722,7.11" fill="none" stroke="#91949c" stroke-width="1"/>
    </g>
    <path id="Path_9" data-name="Path 9" d="M1350.579,910.038l1.512-11.063s7.909-28.618,22.079-36.806c22-12.714,34.813-27.6,34.813-27.6s-16.649,19.092-15.075,40.429-42.635,28.455-42.635,28.455" fill="none" stroke="#91949c" stroke-width="1"/>
    <path id="Path_10" data-name="Path 10" d="M1345.208,925.187l-6.943-3.524s4.414-21.521-20.929-28.843-27.458-8.225-27.458-8.225a96.818,96.818,0,0,1,11.376,20.78c5.048,12.534,37.011,16.288,37.011,16.288" fill="none" stroke="#91949c" stroke-width="1"/>
  </g>
</svg>
