<svg xmlns="http://www.w3.org/2000/svg" width="1303.846" height="156.308" viewBox="0 0 1303.846 156.308">
  <g id="Group_18" data-name="Group 18" transform="translate(-357.296 -1216.274)">
    <text id="Across_the_Pacific" data-name="Across the Pacific" transform="translate(705 1315)" fill="#e4e6e8" font-size="80" font-family="JosefinSans-Regular, Josefin Sans" letter-spacing="0.08em"><tspan x="0" y="0">Across the Pacific</tspan></text>
    <path id="Path_11" data-name="Path 11" d="M388.916,218.583c13.781,0,15.749-11.813,21.656-21.656,5.1-8.495,19.09-11.966,27.562-7.875,8.677,4.19,10.506,16.18,10.828,18.7,2.017,15.827-8.691,24.644-24.34,48.815-14.283,22.06-35.706,70.291-35.706,70.291h0s44.3-71.858,93.512-80.716S489.32,280.6,489.32,280.6c13.47-17.554,24.609-7.875,24.609-7.875,11.813,14.764-34.452,38.39-34.452,38.39,15.492-9.24,25.592-8.86,28.545,0s-26.577,20.7-26.577,20.7c4.258-.745,91.029-36.781,176.027-36.795,74.592-.012,198.078,42.721,302.469,45.88,113.581,3.437,152.733-23.994,263.609-24.964,88.5-.774,216.616,19.785,277.573,24.964,53.468,4.542,80.616-13.972,126.875-24.964,39.917-9.484,61.195.434,63.677,0" transform="translate(-30.707 1030.009)" fill="none" stroke="#e4e6e8" stroke-miterlimit="10" stroke-width="2"/>
  </g>
</svg>
