<svg xmlns="http://www.w3.org/2000/svg" xmlns:xlink="http://www.w3.org/1999/xlink" viewBox="0 0 59.32 105.6"><defs><style>.cls-1{fill:#b18968;}.cls-2{fill:none;}.cls-2,.cls-3,.cls-4,.cls-5{stroke:#231f20;stroke-miterlimit:10;}.cls-3{fill:url(#linear-gradient);}.cls-4{fill:#fff;}.cls-5{fill:url(#linear-gradient-2);}</style><linearGradient id="linear-gradient" x1="-470.25" y1="613.84" x2="-469.75" y2="612.84" gradientTransform="matrix(47.73, 0, 0, -69.64, 22471.9, 42784.63)" gradientUnits="userSpaceOnUse"><stop offset="0" stop-color="#f5cb3c"/><stop offset="1" stop-color="#e0dfda"/></linearGradient><linearGradient id="linear-gradient-2" x1="-460.71" y1="607.82" x2="-460.71" y2="606.82" gradientTransform="matrix(24.6, 0, 0, -20.32, 11367.26, 12348.54)" gradientUnits="userSpaceOnUse"><stop offset="0" stop-color="#f5cb3c"/><stop offset="1" stop-color="#fff"/></linearGradient></defs><title>Asset 1</title><g id="Layer_2" data-name="Layer 2"><g id="Layer_1-2" data-name="Layer 1"><path class="cls-1" d="M59.28,68.9h0Z"/></g><g id="Layer_2-2" data-name="Layer 2"><g id="Group_746" data-name="Group 746"><g id="Group_741" data-name="Group 741"><path id="Path_2768" data-name="Path 2768" class="cls-2" d="M35.5,50.29a12.65,12.65,0,0,0,0,25.3h0a12.65,12.65,0,0,0,0-25.3Z"/><path id="Path_2769" data-name="Path 2769" class="cls-3" d="M47.92,35.44a20.3,20.3,0,0,1-26.83,1.22,26.37,26.37,0,0,0-10.07,8C0,59.25,11,80.23,20,90c12.56,13.74,29.86,14.91,34.19,15.08q-.09-33.6-.16-67.21A44,44,0,0,0,47.92,35.44ZM35.49,75.6h0A12.66,12.66,0,1,1,48.14,63,12.65,12.65,0,0,1,35.48,75.6Z"/><path id="Path_2770" data-name="Path 2770" class="cls-2" d="M17.49,8.72a20.31,20.31,0,0,0,3.6,27.93"/><path id="Path_2772" data-name="Path 2772" class="cls-2" d="M47.92,35.44A20.32,20.32,0,0,0,50.17,8.75"/><path id="Path_2773" data-name="Path 2773" class="cls-2" d="M21.09,36.65a20.29,20.29,0,0,0,26.83-1.21"/></g><path id="Path_2774" data-name="Path 2774" class="cls-4" d="M54.14,105.07c-.08-33.67,0-84.25,0-84.25"/><path id="Path_2775" data-name="Path 2775" class="cls-2" d="M21.46,4.69A29.44,29.44,0,0,0,8.38,1.85"/><path id="Path_2776" data-name="Path 2776" class="cls-2" d="M59.25,2.06A32.49,32.49,0,0,0,46.08,4.59"/><g id="Group_744" data-name="Group 744"><g id="Group_742" data-name="Group 742"><path id="Path_2777" data-name="Path 2777" class="cls-5" d="M21.46,4.69a20.33,20.33,0,0,1,24.6-.09C36.81,8.71,33.91,16.75,33.82,20.82h0C33.81,18.46,31,9.38,21.46,4.69Z"/></g><g id="Group_743" data-name="Group 743"><path id="Path_2778" data-name="Path 2778" class="cls-2" d="M46.06,4.6a20.33,20.33,0,0,0-24.6.09"/><path id="Path_2779" data-name="Path 2779" class="cls-2" d="M46.09,4.62a0,0,0,0,1,0,0"/><path id="Path_2780" data-name="Path 2780" class="cls-2" d="M46.08,4.59h0C36.82,8.71,33.92,16.75,33.82,20.82a1.48,1.48,0,0,0,0,.21"/><path id="Path_2781" data-name="Path 2781" class="cls-2" d="M21.46,4.69C31,9.38,33.81,18.46,33.81,20.82"/></g></g><path id="Path_2783" data-name="Path 2783" class="cls-2" d="M.49,69.31A41.46,41.46,0,0,0,5.38,83.08a42.81,42.81,0,0,0,7.72,9.84"/><path id="Path_2784" data-name="Path 2784" class="cls-2" d="M16.66,95.33c5.18,4.56,8,5.78,8,5.78"/></g></g></g></svg>