<svg xmlns="http://www.w3.org/2000/svg" xmlns:xlink="http://www.w3.org/1999/xlink" width="375" height="812" viewBox="0 0 375 812">
  <defs>
    <clipPath id="clip-Edit_name">
      <rect width="375" height="812"/>
    </clipPath>
  </defs>
  <g id="Edit_name" data-name="Edit name" clip-path="url(#clip-Edit_name)">
    <rect width="375" height="812" fill="#faf8f8"/>
    <rect id="Rectangle_33" data-name="Rectangle 33" width="375" height="104" transform="translate(0 -2)" fill="#fff"/>
    <g id="Status_Bar" data-name="Status Bar">
      <rect id="Frame" width="375" height="44" fill="#fff" opacity="0.001"/>
      <g id="Status_Bar-2" data-name="Status Bar" transform="translate(21 13)">
        <g id="Battery" transform="translate(315.672 3.333)">
          <g id="Border" fill="none" stroke="#000" stroke-miterlimit="10" stroke-width="1" opacity="0.35">
            <rect width="22" height="11.333" rx="2.667" stroke="none"/>
            <rect x="0.5" y="0.5" width="21" height="10.333" rx="2.167" fill="none"/>
          </g>
          <path id="Cap" d="M0,0V4A2.17,2.17,0,0,0,1.328,2,2.17,2.17,0,0,0,0,0" transform="translate(23 3.667)" opacity="0.4"/>
          <rect id="Capacity" width="18" height="7.333" rx="1.333" transform="translate(2 2)"/>
        </g>
        <path id="Wifi" d="M7.667,11a.314.314,0,0,1-.222-.093L5.439,8.885a.31.31,0,0,1-.094-.231.316.316,0,0,1,.1-.227,3.437,3.437,0,0,1,4.437,0,.315.315,0,0,1,.009.458L7.889,10.907A.314.314,0,0,1,7.667,11ZM11.19,7.451a.313.313,0,0,1-.215-.086,4.928,4.928,0,0,0-6.612,0,.313.313,0,0,1-.215.086.308.308,0,0,1-.22-.091L2.768,6.189a.322.322,0,0,1,0-.46,7.192,7.192,0,0,1,9.791,0,.323.323,0,0,1,.1.23.319.319,0,0,1-.095.23L11.409,7.36A.309.309,0,0,1,11.19,7.451Zm2.669-2.693a.3.3,0,0,1-.215-.088,8.68,8.68,0,0,0-11.955,0,.307.307,0,0,1-.435,0L.094,3.5a.323.323,0,0,1,0-.457,10.948,10.948,0,0,1,15.141,0,.323.323,0,0,1,0,.457l-1.161,1.17A.306.306,0,0,1,13.859,4.758Z" transform="translate(295.339 3.331)"/>
        <path id="Cellular_Connection" data-name="Cellular Connection" d="M16,10.667H15a1,1,0,0,1-1-1V1a1,1,0,0,1,1-1h1a1,1,0,0,1,1,1V9.667A1,1,0,0,1,16,10.667Zm-4.667,0h-1a1,1,0,0,1-1-1V3.334a1,1,0,0,1,1-1h1a1,1,0,0,1,1,1V9.667A1,1,0,0,1,11.334,10.667Zm-4.667,0h-1a1,1,0,0,1-1-1v-4a1,1,0,0,1,1-1h1a1,1,0,0,1,1,1v4A1,1,0,0,1,6.666,10.667ZM2,10.667H1a1,1,0,0,1-1-1v-2a1,1,0,0,1,1-1H2a1,1,0,0,1,1,1v2A1,1,0,0,1,2,10.667Z" transform="translate(273.339 3.667)"/>
        <g id="Time_Style" data-name="Time Style">
          <text id="Time" font-size="15" font-family="Helvetica" letter-spacing="-0.02em"><tspan x="12.853" y="12">9:41</tspan></text>
        </g>
      </g>
    </g>
    <text id="Name" transform="translate(188 80)" fill="#5a5953" font-size="17" font-family="Avenir-Black, Avenir" font-weight="800"><tspan x="-23.766" y="0">Name</tspan></text>
    <path id="Icon_awesome-arrow-left" data-name="Icon awesome-arrow-left" d="M8.964,16.834l-.773.773a.832.832,0,0,1-1.18,0L.242,10.842a.832.832,0,0,1,0-1.18L7.011,2.893a.832.832,0,0,1,1.18,0l.773.773A.837.837,0,0,1,8.95,4.86l-4.2,4H14.761a.834.834,0,0,1,.836.836v1.114a.834.834,0,0,1-.836.836H4.754l4.2,4A.831.831,0,0,1,8.964,16.834Z" transform="translate(25.004 63.853)" fill="#5a5953"/>
    <text id="First_Name:" data-name="First Name:" transform="translate(25 144)" fill="#f49f86" font-size="17" font-family="Avenir-Black, Avenir" font-weight="800"><tspan x="0" y="0">First Name:</tspan></text>
    <text id="Last_Name:" data-name="Last Name:" transform="translate(25 216)" fill="#f49f86" font-size="17" font-family="Avenir-Black, Avenir" font-weight="800"><tspan x="0" y="0">Last Name:</tspan></text>
    <g id="Group_56" data-name="Group 56" transform="translate(-19 -84)">
      <text id="First_name" data-name="First name" transform="translate(45 257)" fill="rgba(59,72,113,0.5)" font-size="13" font-family="Avenir-Book, Avenir"><tspan x="0" y="0">First name</tspan></text>
      <line id="Line_1" data-name="Line 1" x2="287" transform="translate(44.5 263.5)" fill="none" stroke="rgba(90,89,83,0.5)" stroke-width="1"/>
    </g>
    <g id="Group_87" data-name="Group 87" transform="translate(-19 -12)">
      <text id="Last_name" data-name="Last name" transform="translate(45 257)" fill="rgba(59,72,113,0.5)" font-size="13" font-family="Avenir-Book, Avenir"><tspan x="0" y="0">Last name</tspan></text>
      <line id="Line_1-2" data-name="Line 1" x2="287" transform="translate(44.5 263.5)" fill="none" stroke="rgba(90,89,83,0.5)" stroke-width="1"/>
    </g>
    <rect id="Rectangle_28" data-name="Rectangle 28" width="375" height="87" transform="translate(0 725)" fill="#fff"/>
    <g id="Group_31" data-name="Group 31" transform="translate(127 743.619)">
      <g id="Path_38" data-name="Path 38" fill="#fff">
        <path d="M25,0H97a25,25,0,0,1,0,50H25A25,25,0,0,1,25,0Z" stroke="none"/>
        <path d="M 25 1 C 21.75958251953125 1 18.61661529541016 1.634418487548828 15.65841674804688 2.885631561279297 C 12.80063629150391 4.094367980957031 10.23388671875 5.825000762939453 8.029434204101562 8.029434204101562 C 5.824996948242188 10.23388290405273 4.094367980957031 12.80063247680664 2.885635375976562 15.65841674804688 C 1.634414672851562 18.61661720275879 1 21.75958251953125 1 25 C 1 28.24041748046875 1.634414672851562 31.38338279724121 2.885635375976562 34.34158325195312 C 4.094367980957031 37.19936752319336 5.824996948242188 39.76611709594727 8.029434204101562 41.97056579589844 C 10.23388671875 44.17499923706055 12.80063629150391 45.90563201904297 15.65841674804688 47.1143684387207 C 18.61661529541016 48.36558151245117 21.75958251953125 49 25 49 L 97 49 C 100.2404174804688 49 103.3833847045898 48.36558151245117 106.3415832519531 47.1143684387207 C 109.1993637084961 45.90563201904297 111.76611328125 44.17499923706055 113.9705657958984 41.97056579589844 C 116.1750030517578 39.76611709594727 117.905632019043 37.19936752319336 119.1143646240234 34.34158325195312 C 120.3655853271484 31.38338279724121 121 28.24041748046875 121 25 C 121 21.75958251953125 120.3655853271484 18.61661720275879 119.1143646240234 15.65841674804688 C 117.905632019043 12.80063247680664 116.1750030517578 10.23388290405273 113.9705657958984 8.029434204101562 C 111.76611328125 5.825000762939453 109.1993637084961 4.094367980957031 106.3415832519531 2.885631561279297 C 103.3833847045898 1.634418487548828 100.2404174804688 1 97 1 L 25 1 M 25 0 L 97 0 C 110.8071136474609 0 122 11.1928825378418 122 25 C 122 38.8071174621582 110.8071136474609 50 97 50 L 25 50 C 11.19288635253906 50 0 38.8071174621582 0 25 C 0 11.1928825378418 11.19288635253906 0 25 0 Z" stroke="none" fill="rgba(90,89,83,0.15)"/>
      </g>
      <text id="Save" transform="translate(61 32.381)" fill="#f49f86" font-size="20" font-family="Avenir-Book, Avenir"><tspan x="-21.13" y="0">Save</tspan></text>
    </g>
  </g>
</svg>
