<svg xmlns="http://www.w3.org/2000/svg" xmlns:xlink="http://www.w3.org/1999/xlink" width="375" height="810" viewBox="0 0 375 810">
  <defs>
    <clipPath id="clip-path">
      <rect width="129.959" height="51.213" fill="none"/>
    </clipPath>
    <clipPath id="clip-Error_store_closed_">
      <rect width="375" height="810"/>
    </clipPath>
  </defs>
  <g id="Error_store_closed_" data-name="Error (store closed) " clip-path="url(#clip-Error_store_closed_)">
    <rect width="375" height="810" fill="rgba(255,255,255,0.7)"/>
    <g id="Status_Bar" data-name="Status Bar" transform="translate(21 11)">
      <g id="Status_Bar-2" data-name="Status Bar">
        <g id="Battery" transform="translate(315.672 3.333)">
          <g id="Border" fill="none" stroke="#000" stroke-miterlimit="10" stroke-width="1" opacity="0.35">
            <rect width="22" height="11.333" rx="2.667" stroke="none"/>
            <rect x="0.5" y="0.5" width="21" height="10.333" rx="2.167" fill="none"/>
          </g>
          <path id="Cap" d="M0,0V4A2.17,2.17,0,0,0,1.328,2,2.17,2.17,0,0,0,0,0" transform="translate(23 3.667)" opacity="0.4"/>
          <rect id="Capacity" width="18" height="7.333" rx="1.333" transform="translate(2 2)"/>
        </g>
        <path id="Wifi" d="M7.667,11a.314.314,0,0,1-.222-.093L5.439,8.885a.31.31,0,0,1-.094-.231.316.316,0,0,1,.1-.227,3.437,3.437,0,0,1,4.437,0,.315.315,0,0,1,.009.458L7.889,10.907A.314.314,0,0,1,7.667,11ZM11.19,7.451a.313.313,0,0,1-.215-.086,4.928,4.928,0,0,0-6.612,0,.313.313,0,0,1-.215.086.308.308,0,0,1-.22-.091L2.768,6.189a.322.322,0,0,1,0-.46,7.192,7.192,0,0,1,9.791,0,.323.323,0,0,1,.1.23.319.319,0,0,1-.095.23L11.409,7.36A.309.309,0,0,1,11.19,7.451Zm2.669-2.693a.3.3,0,0,1-.215-.088,8.68,8.68,0,0,0-11.955,0,.307.307,0,0,1-.435,0L.094,3.5a.323.323,0,0,1,0-.457,10.948,10.948,0,0,1,15.141,0,.323.323,0,0,1,0,.457l-1.161,1.17A.306.306,0,0,1,13.859,4.758Z" transform="translate(295.339 3.331)"/>
        <path id="Cellular_Connection" data-name="Cellular Connection" d="M16,10.667H15a1,1,0,0,1-1-1V1a1,1,0,0,1,1-1h1a1,1,0,0,1,1,1V9.667A1,1,0,0,1,16,10.667Zm-4.667,0h-1a1,1,0,0,1-1-1V3.334a1,1,0,0,1,1-1h1a1,1,0,0,1,1,1V9.667A1,1,0,0,1,11.334,10.667Zm-4.667,0h-1a1,1,0,0,1-1-1v-4a1,1,0,0,1,1-1h1a1,1,0,0,1,1,1v4A1,1,0,0,1,6.666,10.667ZM2,10.667H1a1,1,0,0,1-1-1v-2a1,1,0,0,1,1-1H2a1,1,0,0,1,1,1v2A1,1,0,0,1,2,10.667Z" transform="translate(273.339 3.667)"/>
        <g id="Time_Style" data-name="Time Style">
          <text id="Time" font-size="15" font-family="Helvetica" letter-spacing="-0.02em"><tspan x="12.853" y="12">9:41</tspan></text>
        </g>
      </g>
    </g>
    <text id="Oops_Seems_like_East_West_Tea_is_closed_at_this_time._" data-name="Oops!
Seems like East West Tea is closed at this time.
" transform="translate(39 309)" fill="#5a5953" font-size="20" font-family="Avenir-Black, Avenir" font-weight="800"><tspan x="119.21" y="20">Oops!</tspan><tspan x="19.55" y="47">Seems like East West Tea is </tspan><tspan x="59.38" y="74">closed at this time.</tspan></text>
    <g id="Repeat_Grid_16" data-name="Repeat Grid 16" transform="translate(123 598.394)" clip-path="url(#clip-path)">
      <g id="Group_102" data-name="Group 102" transform="translate(-43.521 -521.394)">
        <g id="Path_73" data-name="Path 73" transform="translate(43.521 521.394)" fill="#fff">
          <path d="M25.606,0H99.353a25.606,25.606,0,0,1,0,51.213H25.606A25.606,25.606,0,0,1,25.606,0Z" stroke="none"/>
          <path d="M 25.60636138916016 1 C 22.28407287597656 1 19.06170654296875 1.65045166015625 16.02875518798828 2.933284759521484 C 13.09877777099609 4.172550201416016 10.46715545654297 5.9468994140625 8.207023620605469 8.207035064697266 C 5.946907043457031 10.46716690063477 4.172561645507812 13.0987663269043 2.933273315429688 16.02875137329102 C 1.650444030761719 19.06169891357422 0.9999923706054688 22.28406715393066 0.9999923706054688 25.60634994506836 C 0.9999923706054688 28.92863273620605 1.650444030761719 32.1510009765625 2.933273315429688 35.18395233154297 C 4.172561645507812 38.11393356323242 5.946907043457031 40.74553298950195 8.207023620605469 43.00566864013672 C 10.46715545654297 45.26580047607422 13.09877777099609 47.0401496887207 16.02875518798828 48.27941513061523 C 19.06170654296875 49.56224822998047 22.28407287597656 50.21269989013672 25.60636138916016 50.21269989013672 L 99.35264587402344 50.21269989013672 C 102.6749267578125 50.21269989013672 105.8972930908203 49.56224822998047 108.9302444458008 48.27941513061523 C 111.8602294921875 47.0401496887207 114.4918212890625 45.26580047607422 116.7519607543945 43.00566864013672 C 119.012077331543 40.74555206298828 120.7864227294922 38.11393356323242 122.0256958007812 35.18395233154297 C 123.3085250854492 32.1510009765625 123.9589767456055 28.92863273620605 123.9589767456055 25.60634994506836 C 123.9589767456055 22.28406715393066 123.3085250854492 19.06169891357422 122.0256958007812 16.02875137329102 C 120.7864227294922 13.0987663269043 119.012077331543 10.4671516418457 116.7519607543945 8.207035064697266 C 114.4918212890625 5.9468994140625 111.8602294921875 4.172550201416016 108.9302444458008 2.933284759521484 C 105.8972930908203 1.65045166015625 102.6749267578125 1 99.35264587402344 1 L 25.60636138916016 1 M 25.60636138916016 0 L 99.35264587402344 0 C 113.4946441650391 0 124.9589767456055 11.46435165405273 124.9589767456055 25.60634994506836 C 124.9589767456055 39.74835205078125 113.4946441650391 51.21269989013672 99.35264587402344 51.21269989013672 L 25.60636138916016 51.21269989013672 C 11.46435546875 51.21269989013672 -7.62939453125e-06 39.74835205078125 -7.62939453125e-06 25.60634994506836 C -7.62939453125e-06 11.46435165405273 11.46435546875 0 25.60636138916016 0 Z" stroke="none" fill="rgba(90,89,83,0.15)"/>
        </g>
        <text id="Main_Menu" data-name="Main Menu" transform="translate(106 554)" fill="#f49f86" font-size="20" font-family="Avenir-Book, Avenir"><tspan x="-50.41" y="0">Main Menu</tspan></text>
      </g>
    </g>
    <text id="We_are_sorry_for_the_inconvenience._Please_go_back_to_Main_Menu_and_select_another_vendor." data-name="We are sorry for the inconvenience.
Please go back to Main Menu and select another vendor." transform="translate(27 442)" fill="#5a5953" font-size="17" font-family="Avenir-Book, Avenir"><tspan x="26.37" y="17">We are sorry for the inconvenience.</tspan><tspan x="6.811" y="40">Please go back to Main Menu and select </tspan><tspan x="100.677" y="63">another vendor.</tspan></text>
    <path id="Icon_material-error-outline" data-name="Icon material-error-outline" d="M65.5,93.282h13.89v13.89H65.5Zm0-55.558h13.89V79.392H65.5ZM72.378,3A69.448,69.448,0,1,0,141.9,72.448,69.414,69.414,0,0,0,72.378,3Zm.069,125.006a55.558,55.558,0,1,1,55.558-55.558A55.543,55.543,0,0,1,72.448,128.006Z" transform="translate(115.378 121.378)" fill="#f49f86"/>
  </g>
</svg>
