<svg xmlns="http://www.w3.org/2000/svg" xmlns:xlink="http://www.w3.org/1999/xlink" width="375" height="812" viewBox="0 0 375 812">
  <defs>
    <clipPath id="clip-Set-payment">
      <rect width="375" height="812"/>
    </clipPath>
  </defs>
  <g id="Set-payment" clip-path="url(#clip-Set-payment)">
    <rect width="375" height="812" fill="#fff"/>
    <rect id="Rectangle_74" data-name="Rectangle 74" width="211" height="81" rx="20" transform="translate(82 186)" fill="rgba(244,159,134,0.8)"/>
    <rect id="Rectangle_33" data-name="Rectangle 33" width="375" height="104" transform="translate(0 -2)" fill="#fff"/>
    <g id="Status_Bar" data-name="Status Bar">
      <rect id="Frame" width="375" height="44" fill="#fff" opacity="0.001"/>
      <g id="Status_Bar-2" data-name="Status Bar" transform="translate(21 13)">
        <g id="Battery" transform="translate(315.672 3.333)">
          <g id="Border" fill="none" stroke="#000" stroke-miterlimit="10" stroke-width="1" opacity="0.35">
            <rect width="22" height="11.333" rx="2.667" stroke="none"/>
            <rect x="0.5" y="0.5" width="21" height="10.333" rx="2.167" fill="none"/>
          </g>
          <path id="Cap" d="M0,0V4A2.17,2.17,0,0,0,1.328,2,2.17,2.17,0,0,0,0,0" transform="translate(23 3.667)" opacity="0.4"/>
          <rect id="Capacity" width="18" height="7.333" rx="1.333" transform="translate(2 2)"/>
        </g>
        <path id="Wifi" d="M7.667,11a.314.314,0,0,1-.222-.093L5.439,8.885a.31.31,0,0,1-.094-.231.316.316,0,0,1,.1-.227,3.437,3.437,0,0,1,4.437,0,.315.315,0,0,1,.009.458L7.889,10.907A.314.314,0,0,1,7.667,11ZM11.19,7.451a.313.313,0,0,1-.215-.086,4.928,4.928,0,0,0-6.612,0,.313.313,0,0,1-.215.086.308.308,0,0,1-.22-.091L2.768,6.189a.322.322,0,0,1,0-.46,7.192,7.192,0,0,1,9.791,0,.323.323,0,0,1,.1.23.319.319,0,0,1-.095.23L11.409,7.36A.309.309,0,0,1,11.19,7.451Zm2.669-2.693a.3.3,0,0,1-.215-.088,8.68,8.68,0,0,0-11.955,0,.307.307,0,0,1-.435,0L.094,3.5a.323.323,0,0,1,0-.457,10.948,10.948,0,0,1,15.141,0,.323.323,0,0,1,0,.457l-1.161,1.17A.306.306,0,0,1,13.859,4.758Z" transform="translate(295.339 3.331)"/>
        <path id="Cellular_Connection" data-name="Cellular Connection" d="M16,10.667H15a1,1,0,0,1-1-1V1a1,1,0,0,1,1-1h1a1,1,0,0,1,1,1V9.667A1,1,0,0,1,16,10.667Zm-4.667,0h-1a1,1,0,0,1-1-1V3.334a1,1,0,0,1,1-1h1a1,1,0,0,1,1,1V9.667A1,1,0,0,1,11.334,10.667Zm-4.667,0h-1a1,1,0,0,1-1-1v-4a1,1,0,0,1,1-1h1a1,1,0,0,1,1,1v4A1,1,0,0,1,6.666,10.667ZM2,10.667H1a1,1,0,0,1-1-1v-2a1,1,0,0,1,1-1H2a1,1,0,0,1,1,1v2A1,1,0,0,1,2,10.667Z" transform="translate(273.339 3.667)"/>
        <g id="Time_Style" data-name="Time Style">
          <text id="Time" font-size="15" font-family="Helvetica" letter-spacing="-0.02em"><tspan x="12.853" y="12">9:41</tspan></text>
        </g>
      </g>
    </g>
    <text id="Payment_Method" data-name="Payment Method" transform="translate(188 127)" fill="#5a5953" font-size="25" font-family="Avenir-Book, Avenir"><tspan x="-96.087" y="0">Payment Method</tspan></text>
    <text id="Tetra" transform="translate(174 231)" fill="#fff" font-size="17" font-family="Avenir-Black, Avenir" font-weight="800"><tspan x="0" y="0">Tetra</tspan></text>
    <text id="Credit_Card" data-name="Credit Card" transform="translate(174 347)" fill="#5a5953" font-size="17" font-family="Avenir-Book, Avenir"><tspan x="0" y="0">Credit Card</tspan></text>
    <rect id="Rectangle_28" data-name="Rectangle 28" width="375" height="67" transform="translate(0 744)" fill="#f49f86"/>
    <text id="Next" transform="translate(188 786)" fill="#fff" font-size="25" font-family="Avenir-Black, Avenir" font-weight="800"><tspan x="-29.4" y="0">Next</tspan></text>
    <text id="_4.89" data-name="$4.89" transform="translate(326 784)" fill="#fff" font-size="20" font-family="Avenir-Book, Avenir"><tspan x="-25.02" y="0">$4.89</tspan></text>
    <path id="Icon_awesome-arrow-left" data-name="Icon awesome-arrow-left" d="M8.964,16.834l-.773.773a.832.832,0,0,1-1.18,0L.242,10.842a.832.832,0,0,1,0-1.18L7.011,2.893a.832.832,0,0,1,1.18,0l.773.773A.837.837,0,0,1,8.95,4.86l-4.2,4H14.761a.834.834,0,0,1,.836.836v1.114a.834.834,0,0,1-.836.836H4.754l4.2,4A.831.831,0,0,1,8.964,16.834Z" transform="translate(25.004 53.853)" fill="#5a5953"/>
    <path id="Icon_awesome-id-card" data-name="Icon awesome-id-card" d="M37.125,2.25H3.375A3.376,3.376,0,0,0,0,5.625V6.75H40.5V5.625A3.376,3.376,0,0,0,37.125,2.25ZM0,30.375A3.376,3.376,0,0,0,3.375,33.75h33.75A3.376,3.376,0,0,0,40.5,30.375V9H0ZM24.75,14.063a.564.564,0,0,1,.563-.562H35.438a.564.564,0,0,1,.563.563v1.125a.564.564,0,0,1-.562.563H25.313a.564.564,0,0,1-.562-.562Zm0,4.5A.564.564,0,0,1,25.313,18H35.438a.564.564,0,0,1,.563.563v1.125a.564.564,0,0,1-.562.563H25.313a.564.564,0,0,1-.562-.562Zm0,4.5a.564.564,0,0,1,.563-.562H35.438a.564.564,0,0,1,.563.563v1.125a.564.564,0,0,1-.562.563H25.313a.564.564,0,0,1-.562-.562ZM12.375,13.5a4.5,4.5,0,1,1-4.5,4.5A4.5,4.5,0,0,1,12.375,13.5ZM4.718,27.858A4.506,4.506,0,0,1,9,24.75h.577a7.242,7.242,0,0,0,5.6,0h.577a4.506,4.506,0,0,1,4.282,3.108,1.107,1.107,0,0,1-1.1,1.392H5.815A1.11,1.11,0,0,1,4.718,27.858Z" transform="translate(118 207.75)" fill="#fff"/>
    <path id="Icon_awesome-credit-card" data-name="Icon awesome-credit-card" d="M0,30.375A3.376,3.376,0,0,0,3.375,33.75h33.75A3.376,3.376,0,0,0,40.5,30.375V18H0Zm13.5-4.781a.846.846,0,0,1,.844-.844h9.563a.846.846,0,0,1,.844.844v2.813a.846.846,0,0,1-.844.844H14.344a.846.846,0,0,1-.844-.844Zm-9,0a.846.846,0,0,1,.844-.844h5.063a.846.846,0,0,1,.844.844v2.813a.846.846,0,0,1-.844.844H5.344a.846.846,0,0,1-.844-.844Zm36-19.969V9H0V5.625A3.376,3.376,0,0,1,3.375,2.25h33.75A3.376,3.376,0,0,1,40.5,5.625Z" transform="translate(118 323.75)" fill="#5a5953"/>
    <g id="Rectangle_75" data-name="Rectangle 75" transform="translate(82 301)" fill="none" stroke="#5a5953" stroke-width="1">
      <rect width="211" height="81" rx="20" stroke="none"/>
      <rect x="0.5" y="0.5" width="210" height="80" rx="19.5" fill="none"/>
    </g>
  </g>
</svg>
