<svg xmlns="http://www.w3.org/2000/svg" xmlns:xlink="http://www.w3.org/1999/xlink" width="375" height="812" viewBox="0 0 375 812">
  <defs>
    <clipPath id="clip-Set-time">
      <rect width="375" height="812"/>
    </clipPath>
  </defs>
  <g id="Set-time" clip-path="url(#clip-Set-time)">
    <rect width="375" height="812" fill="#fff"/>
    <rect id="Rectangle_37" data-name="Rectangle 37" width="375" height="65" transform="translate(0 215)" fill="rgba(255,255,255,0)"/>
    <rect id="Rectangle_36" data-name="Rectangle 36" width="375" height="65" transform="translate(0 149)" fill="rgba(255,255,255,0)"/>
    <rect id="Rectangle_33" data-name="Rectangle 33" width="375" height="104" transform="translate(0 -2)" fill="#fff"/>
    <g id="Status_Bar" data-name="Status Bar">
      <rect id="Frame" width="375" height="44" fill="#fff" opacity="0.001"/>
      <g id="Status_Bar-2" data-name="Status Bar" transform="translate(21 13)">
        <g id="Battery" transform="translate(315.672 3.333)">
          <g id="Border" fill="none" stroke="#000" stroke-miterlimit="10" stroke-width="1" opacity="0.35">
            <rect width="22" height="11.333" rx="2.667" stroke="none"/>
            <rect x="0.5" y="0.5" width="21" height="10.333" rx="2.167" fill="none"/>
          </g>
          <path id="Cap" d="M0,0V4A2.17,2.17,0,0,0,1.328,2,2.17,2.17,0,0,0,0,0" transform="translate(23 3.667)" opacity="0.4"/>
          <rect id="Capacity" width="18" height="7.333" rx="1.333" transform="translate(2 2)"/>
        </g>
        <path id="Wifi" d="M7.667,11a.314.314,0,0,1-.222-.093L5.439,8.885a.31.31,0,0,1-.094-.231.316.316,0,0,1,.1-.227,3.437,3.437,0,0,1,4.437,0,.315.315,0,0,1,.009.458L7.889,10.907A.314.314,0,0,1,7.667,11ZM11.19,7.451a.313.313,0,0,1-.215-.086,4.928,4.928,0,0,0-6.612,0,.313.313,0,0,1-.215.086.308.308,0,0,1-.22-.091L2.768,6.189a.322.322,0,0,1,0-.46,7.192,7.192,0,0,1,9.791,0,.323.323,0,0,1,.1.23.319.319,0,0,1-.095.23L11.409,7.36A.309.309,0,0,1,11.19,7.451Zm2.669-2.693a.3.3,0,0,1-.215-.088,8.68,8.68,0,0,0-11.955,0,.307.307,0,0,1-.435,0L.094,3.5a.323.323,0,0,1,0-.457,10.948,10.948,0,0,1,15.141,0,.323.323,0,0,1,0,.457l-1.161,1.17A.306.306,0,0,1,13.859,4.758Z" transform="translate(295.339 3.331)"/>
        <path id="Cellular_Connection" data-name="Cellular Connection" d="M16,10.667H15a1,1,0,0,1-1-1V1a1,1,0,0,1,1-1h1a1,1,0,0,1,1,1V9.667A1,1,0,0,1,16,10.667Zm-4.667,0h-1a1,1,0,0,1-1-1V3.334a1,1,0,0,1,1-1h1a1,1,0,0,1,1,1V9.667A1,1,0,0,1,11.334,10.667Zm-4.667,0h-1a1,1,0,0,1-1-1v-4a1,1,0,0,1,1-1h1a1,1,0,0,1,1,1v4A1,1,0,0,1,6.666,10.667ZM2,10.667H1a1,1,0,0,1-1-1v-2a1,1,0,0,1,1-1H2a1,1,0,0,1,1,1v2A1,1,0,0,1,2,10.667Z" transform="translate(273.339 3.667)"/>
        <g id="Time_Style" data-name="Time Style">
          <text id="Time" font-size="15" font-family="Helvetica" letter-spacing="-0.02em"><tspan x="12.853" y="12">9:41</tspan></text>
        </g>
      </g>
    </g>
    <text id="As_soon_as_possible" data-name="As soon as possible" transform="translate(47 187)" fill="#f49f86" font-size="15" font-family="Avenir-Book, Avenir"><tspan x="0" y="0">As soon as possible</tspan></text>
    <text id="Schedule_an_order" data-name="Schedule an order" transform="translate(47 252)" fill="#5a5953" font-size="15" font-family="Avenir-Book, Avenir"><tspan x="0" y="0">Schedule an order</tspan></text>
    <path id="Icon_material-chevron-right" data-name="Icon material-chevron-right" d="M14,9l-1.12,1.12,3.638,3.646-3.638,3.646L14,18.531l4.766-4.766Z" transform="translate(318.73 234)" fill="#5a5953"/>
    <path id="Icon_ionic-ios-close" data-name="Icon ionic-ios-close" d="M19.589,18l4.8-4.8A1.124,1.124,0,0,0,22.8,11.616l-4.8,4.8-4.8-4.8A1.124,1.124,0,1,0,11.616,13.2l4.8,4.8-4.8,4.8A1.124,1.124,0,0,0,13.2,24.384l4.8-4.8,4.8,4.8A1.124,1.124,0,1,0,24.384,22.8Z" transform="translate(15.715 55.711)" fill="#5a5953"/>
    <text id="Select_a_time_to_pickup" data-name="Select a time to pickup" transform="translate(188 127)" fill="#5a5953" font-size="25" font-family="Avenir-Book, Avenir"><tspan x="-128" y="0">Select a time to pickup</tspan></text>
    <path id="Icon_awesome-clock" data-name="Icon awesome-clock" d="M8.988.563a8.425,8.425,0,1,0,8.425,8.425A8.424,8.424,0,0,0,8.988.563Zm1.94,11.894-3-2.178a.41.41,0,0,1-.166-.33V4.231a.409.409,0,0,1,.408-.408H9.8a.409.409,0,0,1,.408.408V8.909l2.157,1.57a.407.407,0,0,1,.088.571L11.5,12.368A.41.41,0,0,1,10.927,12.456Z" transform="translate(23.438 172.512)" fill="#f49f86"/>
    <path id="Icon_awesome-calendar-check" data-name="Icon awesome-calendar-check" d="M13,4.771H.358A.358.358,0,0,1,0,4.413V3.339A1.431,1.431,0,0,1,1.431,1.908H2.862V.358A.358.358,0,0,1,3.22,0H4.413a.358.358,0,0,1,.358.358v1.55H8.587V.358A.358.358,0,0,1,8.945,0h1.193A.358.358,0,0,1,10.5.358v1.55h1.431a1.431,1.431,0,0,1,1.431,1.431V4.413A.358.358,0,0,1,13,4.771ZM.358,5.725H13a.358.358,0,0,1,.358.358v7.752a1.431,1.431,0,0,1-1.431,1.431H1.431A1.431,1.431,0,0,1,0,13.835V6.083A.358.358,0,0,1,.358,5.725ZM10.3,8.586l-.84-.847a.358.358,0,0,0-.506,0L5.788,10.873,4.417,9.491a.358.358,0,0,0-.506,0l-.847.84a.358.358,0,0,0,0,.506l2.463,2.483a.358.358,0,0,0,.506,0l4.262-4.228a.358.358,0,0,0,0-.506Z" transform="translate(26.071 240.367)" fill="#5a5953"/>
    <path id="Icon_awesome-check" data-name="Icon awesome-check" d="M4.029,13.249.174,9.394a.593.593,0,0,1,0-.839l.839-.839a.593.593,0,0,1,.839,0l2.6,2.6,5.562-5.562a.593.593,0,0,1,.839,0l.839.839a.593.593,0,0,1,0,.839L4.868,13.249A.593.593,0,0,1,4.029,13.249Z" transform="translate(329.069 172.423)" fill="#f49f86"/>
  </g>
</svg>
